# xmcd CD database file
#
# Track frame offsets:
#	151
#	11006
#	14996
#	26728
#	41511
#	54103
#	59126
#	82948
#	88843
#	109383
#	127923
#	139086
#	145066
#	155391
#	168396
#
# Disc length: 2411 seconds
#
# Revision: 0
# Processed by: cddbd v1.5.1PL0 Copyright (c) Steve Scherf et al.
# Submitted via: CDex 1.51
#
DISCID=ca09690f
DTITLE=Various Artist - West Side Story
DYEAR=2000
DGENRE=Country
TTITLE0=Orchestral - Somewhere (Opening)
TTITLE1=Orchestral - Jet Song
TTITLE2=John Dulieu - Something's Coming
TTITLE3=Maria Kesselman - Tonight
TTITLE4=John Dulieu - Maria
TTITLE5=Orchestral - The Dance At the Gym (Jump)
TTITLE6=Maria Kesselman - America
TTITLE7=Orchestral - Cool
TTITLE8=Maria Kesselman and John Dulieu - One Hand, One Heart
TTITLE9=Maria Kesselman - I Feel Pretty
TTITLE10=John Dulieu - Somewhere
TTITLE11=Orchestral - Gee, Officer Krupke
TTITLE12=Maria Kesselman - A Boy Like That
TTITLE13=Maria Kesselman - I Have a Love
TTITLE14=Orchestral - Somewhere/Jet Song (Finale)
EXTD=YEAR: 2000
EXTT0=
EXTT1=
EXTT2=
EXTT3=
EXTT4=
EXTT5=
EXTT6=
EXTT7=
EXTT8=
EXTT9=
EXTT10=
EXTT11=
EXTT12=
EXTT13=
EXTT14=
PLAYORDER=
